# xmcd
#
# Track frame offsets:
#	150
#	20668
#	38958
#	59463
#	84418
#	108888
#	128650
#	143330
#	163520
#	183225
#	204305
#
# Disc length: 2929 seconds
#
# Revision: 1
# Processed by: cddbd v1.4PL0 Copyright (c) Steve Scherf et al.
# Submitted via: EasyCDDAExtractor 5.0.6
#
DISCID=860b6f0b
DTITLE=Las Chicas Del Can - Explosivo
DYEAR=1900
DGENRE=
TTITLE0=La Yerbita
TTITLE1=Celoso
TTITLE2=Voy Pa' Lla
TTITLE3=Hacer El Amor Con Otro
TTITLE4=Massage
TTITLE5=Tiburon
TTITLE6=Feo
TTITLE7=Sin Compromiso
TTITLE8=Herida De Muerte
TTITLE9=Explosivo
TTITLE10=Asi Ando Yo
EXTD=
EXTT0=
EXTT1=
EXTT2=
EXTT3=
EXTT4=
EXTT5=
EXTT6=
EXTT7=
EXTT8=
EXTT9=
EXTT10=
PLAYORDER=
